<svg xmlns="http://www.w3.org/2000/svg" viewBox="0 0 505.11 738.47"><defs><style>.cls-1{fill:#252f35;}.cls-14,.cls-2{font-size:23.79px;}.cls-2{fill:#38484c;}.cls-2,.cls-7{font-family:DIN2014-Demi, DIN 2014;}.cls-3{letter-spacing:-0.03em;}.cls-4{letter-spacing:-0.01em;}.cls-5{letter-spacing:-0.01em;}.cls-6{letter-spacing:0em;}.cls-7{font-size:27.76px;fill:#efefef;}.cls-8{letter-spacing:-0.02em;}.cls-10,.cls-11,.cls-12,.cls-13,.cls-9{fill:#66ccc9;}.cls-9{letter-spacing:0em;}.cls-10{letter-spacing:-0.02em;}.cls-11{letter-spacing:-0.02em;}.cls-12{letter-spacing:-0.01em;}.cls-14{fill:#b7b7b7;font-family:DIN2014-ExtraLight, DIN 2014;}.cls-15{letter-spacing:-0.01em;}.cls-16{letter-spacing:-0.01em;}.cls-17{letter-spacing:-0.01em;}.cls-18{letter-spacing:-0.02em;}.cls-19{letter-spacing:-0.01em;}.cls-20{letter-spacing:-0.06em;}.cls-21{opacity:0.4;}.cls-22{fill:#ededed;}.cls-23,.cls-24,.cls-25{fill:none;stroke-linecap:round;stroke-linejoin:round;stroke-width:1.16px;}.cls-23{stroke:#bcbcbc;}.cls-24{stroke:#66ccc9;}.cls-25{stroke:#ef4141;}</style></defs><title>card2</title><g id="Layer_2" data-name="Layer 2"><g id="Layer_1-2" data-name="Layer 1"><rect class="cls-1" x="0.01" y="0.01" width="505.09" height="738.46" rx="55" ry="55"/><text class="cls-2" transform="translate(189.69 68.77)">FLUX <tspan class="cls-3" x="59.95" y="0">F</tspan><tspan class="cls-4" x="71.82" y="0">A</tspan><tspan class="cls-5" x="85.72" y="0">C</tspan><tspan class="cls-6" x="99.49" y="0">TS</tspan></text><text class="cls-7" transform="translate(71.38 163.98)">BUILD <tspan class="cls-8" x="81.21" y="0">Y</tspan><tspan x="96.51" y="0">OUR</tspan><tspan class="cls-9" x="149.02" y="0" xml:space="preserve"> IMMUNE </tspan><tspan class="cls-10" x="264.99" y="0">S</tspan><tspan class="cls-11" x="280.47" y="0">Y</tspan><tspan class="cls-12" x="295.82" y="0">S</tspan><tspan class="cls-13" x="311.45" y="0">TEM</tspan></text><text class="cls-14" transform="translate(76.25 236.48)"><tspan class="cls-15">Ex</tspan><tspan x="22.65" y="0">e</tspan><tspan class="cls-16" x="34.09" y="0">r</tspan><tspan x="42.97" y="0">cising helps boost </tspan><tspan class="cls-17" x="223.7" y="0">y</tspan><tspan x="234.12" y="0">our immune </tspan><tspan class="cls-18" x="-16.59" y="33.7">s</tspan><tspan x="-6.13" y="33.7">ys</tspan><tspan class="cls-15" x="15.47" y="33.7">t</tspan><tspan x="22.42" y="33.7">em so </tspan><tspan class="cls-17" x="87.25" y="33.7">y</tspan><tspan x="97.67" y="33.7">ou’ll get sick le</tspan><tspan class="cls-15" x="242.7" y="33.7">s</tspan><tspan x="253.31" y="33.7">s of</tspan><tspan class="cls-19" x="288.68" y="33.7">t</tspan><tspan x="295.63" y="33.7">en than </tspan><tspan x="-8.33" y="67.41">people who don’t. </tspan><tspan class="cls-20" x="167.6" y="67.41">Y</tspan><tspan x="178.45" y="67.41">our body p</tspan><tspan class="cls-5" x="282.75" y="67.41">r</tspan><tspan x="291.62" y="67.41">oduces </tspan><tspan x="4.57" y="101.11">mo</tspan><tspan class="cls-16" x="35.21" y="101.11">r</tspan><tspan x="44.08" y="101.11">e antibodies that fight sickne</tspan><tspan class="cls-15" x="322.15" y="101.11">s</tspan><tspan x="332.76" y="101.11">s.</tspan></text><g class="cls-21"><path class="cls-22" d="M424.21,682.09c.12,0,.35,0,.58,0l27.83.1c.51,0,1,0,1.27.56s-.12,1-.5,1.36q-9.74,9.74-19.44,19.47c-.13.13-.24.31-.4.37-.34.13-.79.36-1,.24a1.32,1.32,0,0,1-.59-1c0-1.33.07-2.66.12-4,.08-2.24.15-4.49.26-6.73a1.53,1.53,0,0,0-.54-1.36c-2.6-2.39-5.17-4.8-7.75-7.21C423.3,683.24,423.35,682.43,424.21,682.09ZM448,684.18l0-.15L426.83,684c2.22,2.07,4.25,4,6.31,5.87a.86.86,0,0,0,.74.14Q440.93,687.1,448,684.18Zm.92,1.75a2.47,2.47,0,0,0-.34.06c-4.62,1.9-9.24,3.82-13.87,5.7-.44.18-.5.45-.51.85-.08,2.56-.18,5.12-.27,7.68a6.79,6.79,0,0,0,0,.68Z"/></g><path class="cls-23" d="M301.43,466.08c-.09,27.06-22.31,49.09-48.85,49.06-25.85,0-47.69-21-48.72-47.29"/><path class="cls-23" d="M291.64,466.83c0,22.1-17.5,40-39.09,40s-39.09-17.91-39.09-40"/><path class="cls-23" d="M208.06,462.6c-2.37-25.39-4.09-44.18-5.33-53.36-.25-1.86-.85-6.09,1.55-9.73,2.66-4.05,7.61-5.25,10.19-5.67"/><path class="cls-23" d="M221.66,397.54l.15,0c3.56-.87,5.91-3.86,5.23-6.63s-4.15-4.31-7.71-3.44l-.15,0,1.16,4.9Z"/><path class="cls-23" d="M296.39,462.63c2.37-25.4,4.09-44.18,5.32-53.37.25-1.86.85-6.08-1.54-9.73-2.66-4-7.61-5.24-10.19-5.66"/><path class="cls-23" d="M282.78,397.57l-.15,0c-3.56-.88-5.91-3.86-5.23-6.63s4.15-4.32,7.71-3.44l.15,0-1.16,4.9Z"/><path class="cls-23" d="M252.87,525.74c-.41,32.69.11,59.12.74,78.1.29,8.69,2.24,20.15,10.28,24.41,5.61,3,14.09,2.21,19.41-2.23,8.75-7.3,2.93-19.47,11-27.66,3.17-3.22,9.41-6.76,23-5.32"/><circle class="cls-23" cx="335.84" cy="592.5" r="9.93"/><path class="cls-24" d="M158.37,434.42l10.13-6.73"/><line class="cls-24" x1="163.94" y1="431.9" x2="170.39" y2="441.45"/><polygon class="cls-25" points="159.7 477.62 168.1 477.62 172.81 485.16 168.42 492.89 159.07 492.82 155.06 485.09 159.7 477.62"/><line class="cls-25" x1="168.1" y1="477.62" x2="170.61" y2="473.96"/><line class="cls-25" x1="159.64" y1="477.43" x2="157.63" y2="473.89"/><line class="cls-25" x1="155.06" y1="485.09" x2="151.47" y2="485.07"/><line class="cls-25" x1="159.18" y1="492.71" x2="157.16" y2="495.92"/><line class="cls-25" x1="168.31" y1="492.76" x2="170.22" y2="496.13"/><line class="cls-25" x1="172.69" y1="485.13" x2="176.63" y2="485.13"/><path class="cls-24" d="M334.54,497.82l-6.92,10"/><line class="cls-24" x1="330.3" y1="502.22" x2="320.78" y2="495.74"/><polygon class="cls-25" points="331.5 438.3 323.69 441.41 316.53 436.15 317.75 427.35 326.46 423.95 333.05 429.65 331.5 438.3"/><line class="cls-25" x1="323.69" y1="441.41" x2="322.72" y2="445.75"/><line class="cls-25" x1="331.63" y1="438.46" x2="334.8" y2="441.01"/><line class="cls-25" x1="333.05" y1="429.65" x2="336.39" y2="428.34"/><line class="cls-25" x1="326.4" y1="424.09" x2="327.08" y2="420.36"/><line class="cls-25" x1="317.9" y1="427.42" x2="314.87" y2="425"/><line class="cls-25" x1="316.65" y1="436.14" x2="313" y2="437.59"/><path class="cls-24" d="M192.75,517l10.05,6.84"/><line class="cls-24" x1="197.18" y1="521.19" x2="190.78" y2="530.76"/><polygon class="cls-25" points="198.01 579.18 201.93 571.74 210.79 571.09 215.58 578.58 211.16 586.82 202.45 586.77 198.01 579.18"/><line class="cls-25" x1="201.93" y1="571.74" x2="199.85" y2="567.81"/><line class="cls-25" x1="197.81" y1="579.14" x2="193.74" y2="579.27"/><line class="cls-25" x1="202.45" y1="586.77" x2="200.76" y2="589.93"/><line class="cls-25" x1="211.11" y1="586.67" x2="213.01" y2="589.95"/><line class="cls-25" x1="215.41" y1="578.62" x2="219.29" y2="578.5"/><line class="cls-25" x1="210.7" y1="571.18" x2="212.54" y2="567.7"/><polygon class="cls-25" points="295.35 540.18 287.55 543.29 280.39 538.03 281.61 529.22 290.31 525.82 296.9 531.52 295.35 540.18"/><line class="cls-25" x1="287.54" y1="543.29" x2="286.57" y2="547.62"/><line class="cls-25" x1="295.48" y1="540.34" x2="298.66" y2="542.88"/><line class="cls-25" x1="296.9" y1="531.52" x2="300.25" y2="530.21"/><line class="cls-25" x1="290.25" y1="525.97" x2="290.94" y2="522.24"/><line class="cls-25" x1="281.76" y1="529.3" x2="278.73" y2="526.87"/><line class="cls-25" x1="280.51" y1="538.01" x2="276.85" y2="539.47"/><path class="cls-23" d="M260.62,605.74c0,.66,0,1.63.11,2.81a31.51,31.51,0,0,0,.71,5.65c.54,2.18.91,3.71,2.2,5.25a9,9,0,0,0,4.51,2.91,8.75,8.75,0,0,0,4.61,0"/><line class="cls-23" x1="260.24" y1="595.46" x2="260.24" y2="598.66"/></g></g></svg>