<svg xmlns="http://www.w3.org/2000/svg" viewBox="0 0 493.4 721.33"><defs><style>.cls-1{fill:#252f35;}.cls-12,.cls-2{font-size:23.24px;}.cls-2{fill:#38484c;}.cls-2,.cls-7{font-family:DIN2014-Demi, DIN 2014;}.cls-3{letter-spacing:-0.03em;}.cls-4{letter-spacing:-0.01em;}.cls-5{letter-spacing:-0.01em;}.cls-6{letter-spacing:0em;}.cls-7{font-size:27.11px;fill:#efefef;}.cls-8{letter-spacing:-0.02em;}.cls-9{letter-spacing:0em;}.cls-10,.cls-11{fill:#66ccc9;}.cls-11{letter-spacing:-0.02em;}.cls-12{fill:#b7b7b7;font-family:DIN2014-ExtraLight, DIN 2014;}.cls-13{letter-spacing:-0.01em;}.cls-14{letter-spacing:-0.01em;}.cls-15{letter-spacing:-0.02em;}.cls-16{letter-spacing:-0.04em;}.cls-17{opacity:0.4;}.cls-18{fill:#ededed;}.cls-19,.cls-20,.cls-21,.cls-22,.cls-23,.cls-24{fill:none;stroke-linecap:round;stroke-linejoin:round;}.cls-19,.cls-20,.cls-21,.cls-24{stroke:#ddd;}.cls-19{stroke-width:0.75px;}.cls-20{stroke-width:0.72px;}.cls-21,.cls-22{stroke-width:0.81px;}.cls-22,.cls-23{stroke:#ef4141;}.cls-23{stroke-width:0.67px;}.cls-24{stroke-width:0.87px;}</style></defs><title>card1</title><g id="Layer_2" data-name="Layer 2"><g id="Layer_1-2" data-name="Layer 1"><rect class="cls-1" x="0.02" y="0.01" width="493.35" height="721.3" rx="55" ry="55"/><text class="cls-2" transform="translate(185.34 67.15)">FLUX <tspan class="cls-3" x="58.56" y="0">F</tspan><tspan class="cls-4" x="70.16" y="0">A</tspan><tspan class="cls-5" x="83.73" y="0">C</tspan><tspan class="cls-6" x="97.18" y="0">TS</tspan></text><text class="cls-7" transform="translate(97.77 160.14)">SHARPEN <tspan class="cls-8" x="120.56" y="0">Y</tspan><tspan class="cls-9" x="135.5" y="0">OUR</tspan><tspan class="cls-10" x="186.79" y="0" xml:space="preserve"> MEMO</tspan><tspan class="cls-11" x="266.45" y="0">R</tspan><tspan class="cls-10" x="282.41" y="0">Y</tspan></text><text class="cls-12" transform="translate(65.91 230.95)"><tspan class="cls-13">Ex</tspan><tspan x="22.12" y="0">e</tspan><tspan class="cls-5" x="33.3" y="0">r</tspan><tspan x="41.97" y="0">cising inc</tspan><tspan class="cls-14" x="129.92" y="0">r</tspan><tspan x="138.59" y="0">eases the p</tspan><tspan class="cls-5" x="247.23" y="0">r</tspan><tspan x="255.89" y="0">oduction of </tspan><tspan x="2.25" y="32.92">cells that a</tspan><tspan class="cls-5" x="106.45" y="32.92">r</tspan><tspan class="cls-6" x="115.12" y="32.92">e </tspan><tspan class="cls-5" x="132.11" y="32.92">r</tspan><tspan x="140.77" y="32.92">esponsible </tspan><tspan class="cls-15" x="248.46" y="32.92">f</tspan><tspan x="254.61" y="32.92">or learning </tspan><tspan x="119.03" y="65.84">and memor</tspan><tspan class="cls-16" x="228.48" y="65.84">y</tspan><tspan x="238.06" y="65.84">. </tspan></text><g class="cls-17"><path class="cls-18" d="M414.33,666.27c.12,0,.35,0,.58,0l27.18.1c.5,0,1,0,1.23.55s-.11,1-.49,1.32l-19,19c-.13.13-.24.3-.39.36-.34.13-.78.36-1,.24a1.3,1.3,0,0,1-.57-.94c0-1.3.06-2.6.11-3.91.08-2.19.15-4.38.26-6.58a1.48,1.48,0,0,0-.53-1.32c-2.54-2.33-5-4.69-7.57-7C413.45,667.39,413.5,666.6,414.33,666.27Zm23.21,2,0-.15-20.61-.06c2.17,2,4.16,3.89,6.17,5.73a.85.85,0,0,0,.72.14C428.37,672.1,433,670.2,437.54,668.31Zm.89,1.71a2.51,2.51,0,0,0-.33.06c-4.51,1.86-9,3.73-13.55,5.57-.43.17-.48.44-.5.82q-.12,3.75-.26,7.5a6.32,6.32,0,0,0,0,.67Z"/></g><path class="cls-19" d="M313.6,456.6c-.15,10.85-3.39,26.73-13.29,40-7.63,10.24-15.21,13.54-20.25,25.48a50.39,50.39,0,0,0-3.27,25.14,214.11,214.11,0,0,1-60.85-.26c.33-7.24-.33-17.38-5.58-27.39-5.84-11.13-12.91-13.53-20.06-23.07-11.43-15.28-12-33.5-11.87-39.92.54-23.61,15-48.83,39.68-60.54,3.54-1.67,32.63-14.84,61.59,1.27C303.42,410.51,313.89,436,313.6,456.6Z"/><path class="cls-20" d="M274,565.36a174.85,174.85,0,0,1-28.41,2.35,176.63,176.63,0,0,1-28.32-2.25l-.78-8.36a173.69,173.69,0,0,0,58.78-.15Z"/><path class="cls-20" d="M269.4,581.61a122.34,122.34,0,0,1-47.18.21l-.84-7.13a146.5,146.5,0,0,0,49.49.21Z"/><path class="cls-20" d="M257.4,591.07v.21c0,5-4.61,9-10.27,9.05s-10.32-4-10.33-9v-.21a58.56,58.56,0,0,0,10.46.89A57.64,57.64,0,0,0,257.4,591.07Z"/><path class="cls-21" d="M230.84,497.35,238.73,540"/><path class="cls-21" d="M268.27,473.53q-6.72,33.35-13.45,66.68"/><path class="cls-22" d="M281.81,451.43a12.3,12.3,0,0,0,2.1-7.9c-.5-5.38-4.62-8.41-5.81-9.21a13.68,13.68,0,0,0-6.07-2.17A17.74,17.74,0,0,0,260,421.64a17.64,17.64,0,0,0-7.91-.16,16.93,16.93,0,0,0-18.17,1.19,17.33,17.33,0,0,0-6,7.84,22.5,22.5,0,0,0-5,.16c-2.45.35-4.26.61-6.05,1.88-2.71,1.92-3.62,4.9-4.12,6.55a15.5,15.5,0,0,0-.67,4.64,13.91,13.91,0,0,0-3.14,3.34,13.62,13.62,0,0,0-2,4.67c-.36,1.59-1.11,5,.21,7.67,2.34,4.81,10.1,5.11,14,5.26a22.66,22.66,0,0,0,11-2,21.61,21.61,0,0,0,5.51-3.77,33.56,33.56,0,0,0,9.63,3.92,33.91,33.91,0,0,0,16-.16,12.1,12.1,0,0,0,11.8,3.21,10.42,10.42,0,0,0,6.74-14.41Z"/><path class="cls-22" d="M215.17,467.44c.79,6,5.79,10.18,10.9,10.05,6-.15,11.32-6.23,10.22-13.32"/><path class="cls-22" d="M249.6,466.2a10.56,10.56,0,0,1-10.76,8.29"/><path class="cls-22" d="M226.72,480.91a16.57,16.57,0,0,0-.48,3.17c-.11,1.85-.16,2.77.38,3.41,1.09,1.27,4.07,1.1,5.22-.3.95-1.15,0-2.28,1-3.64s2.16-.78,3.47-2.1a5.17,5.17,0,0,0,1.28-2.37"/><path class="cls-22" d="M264.11,458.55a8.12,8.12,0,0,0-1.22-8.53,8.32,8.32,0,0,0-10.83-.87"/><path class="cls-22" d="M257,442.24a7.53,7.53,0,0,0-3-6.27,7.11,7.11,0,0,0-7.41-.35"/><path class="cls-23" d="M217.1,448.48a6.07,6.07,0,0,0-4.54,4,6.21,6.21,0,0,0,2.91,7.07"/><path class="cls-22" d="M271.2,437.45a8.15,8.15,0,0,1,5.45,12.69"/><path class="cls-24" d="M195.4,513.08a36.71,36.71,0,0,1,12,25"/><line class="cls-24" x1="207.55" y1="544.23" x2="207.55" y2="548.21"/><path class="cls-24" d="M316.72,428.66a56.29,56.29,0,0,1,4.45,33.49"/><line class="cls-24" x1="319.87" y1="469.4" x2="318.85" y2="473.25"/><line class="cls-24" x1="298.34" y1="375.93" x2="307.53" y2="366.74"/><line class="cls-24" x1="337.44" y1="416.64" x2="348.7" y2="410.14"/><line class="cls-24" x1="246.14" y1="358.83" x2="246.14" y2="345.83"/><line class="cls-24" x1="192.94" y1="378.71" x2="183.75" y2="369.52"/><line class="cls-24" x1="158.9" y1="419.34" x2="147.64" y2="412.84"/></g></g></svg>