<svg xmlns="http://www.w3.org/2000/svg" viewBox="0 0 157.8 49"><defs><style>.cls-1{fill:#f55;}</style></defs><title>fluxLogo</title><g id="Layer_2" data-name="Layer 2"><g id="Logo-Home"><path class="cls-1" d="M0,0V49H157.8V0ZM31.15,27.21a.17.17,0,0,1-.17.12h-7.9a.17.17,0,0,0-.17.13l-1.53,7.07a.16.16,0,0,1-.17.12H16.62a.16.16,0,0,1-.17-.18l2.31-10.72a.16.16,0,0,1,.17-.13H31.72a.16.16,0,0,1,.17.19Zm2.5-7.54a.16.16,0,0,1-.17.13H19.82a.16.16,0,0,1-.17-.19l.73-3.39a.16.16,0,0,1,.17-.12H34.22a.16.16,0,0,1,.17.18ZM63.72,34.53a.18.18,0,0,1-.18.12H49.87a.16.16,0,0,1-.17-.18l3.93-18.26a.16.16,0,0,1,.17-.12h4.59a.16.16,0,0,1,.17.18L55.45,30.6a.16.16,0,0,0,.17.18h8.66a.16.16,0,0,1,.17.19Zm35.5-7.39c-1.22,5.68-4.71,7.78-9.8,7.78-4.35,0-8.26-2.55-7.13-7.75l2.36-11a.16.16,0,0,1,.17-.12h4.24a.16.16,0,0,1,.17.18l-2.34,10.9c-.6,2.72.73,4,3,4a4.65,4.65,0,0,0,4.71-4l.74-3.42a.16.16,0,0,1,.17-.13h4.27a.16.16,0,0,1,.17.19Zm1.61-7.47a.18.18,0,0,1-.17.13H96.39a.16.16,0,0,1-.17-.19l.73-3.4a.17.17,0,0,1,.17-.12h4.27a.16.16,0,0,1,.17.18Zm36.35-3.33-7.86,8.79a.15.15,0,0,0,0,.17l4.58,9.13a.16.16,0,0,1-.16.22h-4.8a.17.17,0,0,1-.16-.09l-2.51-5.41a.18.18,0,0,0-.3,0l-4.41,5.47a.17.17,0,0,1-.14.06h-4.73a.15.15,0,0,1-.14-.24l7.54-9.4a.14.14,0,0,0,0-.15l-3.76-8.56a.16.16,0,0,1,.16-.21h4.21a.17.17,0,0,1,.16.09l2.32,5a.19.19,0,0,0,.3,0l4.39-5a.2.2,0,0,1,.14-.05h5C137.2,16.09,137.28,16.24,137.18,16.34Z"/></g></g></svg>