<svg xmlns="http://www.w3.org/2000/svg" viewBox="0 0 676.86 1000"><defs><style>.cls-1{fill:#252f35;}.cls-13,.cls-2{font-size:31.98px;}.cls-2{fill:#38484c;}.cls-2,.cls-7{font-family:DIN2014-Demi, DIN 2014;}.cls-3{letter-spacing:-0.03em;}.cls-4{letter-spacing:-0.01em;}.cls-5{letter-spacing:-0.01em;}.cls-6{letter-spacing:0em;}.cls-7{font-size:37.31px;fill:#efefef;}.cls-8{letter-spacing:-0.02em;}.cls-9{letter-spacing:0em;}.cls-10,.cls-11,.cls-12{fill:#66ccc9;}.cls-11{letter-spacing:-0.01em;}.cls-12{letter-spacing:-0.04em;}.cls-13{fill:#b7b7b7;font-family:DIN2014-ExtraLight, DIN 2014;}.cls-14{letter-spacing:-0.01em;}.cls-15{letter-spacing:-0.01em;}.cls-16{letter-spacing:-0.02em;}.cls-17{letter-spacing:0em;}.cls-18{letter-spacing:-0.01em;}.cls-19{letter-spacing:-0.03em;}.cls-20{letter-spacing:-0.02em;}.cls-21{letter-spacing:-0.04em;}.cls-22{opacity:0.4;}.cls-23{fill:#ededed;}</style></defs><title>mainCard</title><g id="Layer_2" data-name="Layer 2"><g id="Layer_1-2" data-name="Layer 1"><rect class="cls-1" width="676.86" height="1000" rx="62" ry="62"/><text class="cls-2" transform="translate(253.98 99.42)">FLUX <tspan class="cls-3" x="80.58" y="0">F</tspan><tspan class="cls-4" x="96.54" y="0">A</tspan><tspan class="cls-5" x="115.21" y="0">C</tspan><tspan class="cls-6" x="133.73" y="0">TS</tspan></text><text class="cls-7" transform="translate(107.59 227.38)">KEEP <tspan class="cls-8" x="95.02" y="0">Y</tspan><tspan class="cls-9" x="115.58" y="0">OUR</tspan><tspan class="cls-10" x="186.16" y="0" xml:space="preserve"> HEA</tspan><tspan class="cls-11" x="261.74" y="0">R</tspan><tspan class="cls-10" x="284.17" y="0">T HEA</tspan><tspan class="cls-12" x="379.41" y="0">L</tspan><tspan class="cls-10" x="396.53" y="0">THY</tspan></text><text class="cls-13" transform="translate(98.47 324.83)"><tspan class="cls-14">Ex</tspan><tspan x="30.44" y="0">e</tspan><tspan class="cls-5" x="45.82" y="0">r</tspan><tspan x="57.75" y="0">cise inc</tspan><tspan class="cls-15" x="154.29" y="0">r</tspan><tspan x="166.22" y="0">eases ene</tspan><tspan class="cls-5" x="297.1" y="0">r</tspan><tspan x="309.02" y="0">gy l</tspan><tspan class="cls-16" x="356" y="0">e</tspan><tspan class="cls-17" x="370.74" y="0">v</tspan><tspan x="385.23" y="0">els and </tspan><tspan x="-11.35" y="45.3">inc</tspan><tspan class="cls-5" x="26.35" y="45.3">r</tspan><tspan x="38.28" y="45.3">eases se</tspan><tspan class="cls-15" x="151.54" y="45.3">r</tspan><tspan x="163.47" y="45.3">o</tspan><tspan class="cls-14" x="179.33" y="45.3">t</tspan><tspan x="188.66" y="45.3">onin in the b</tspan><tspan class="cls-16" x="350.59" y="45.3">r</tspan><tspan x="362.14" y="45.3">ain, which </tspan><tspan x="1.52" y="90.6">leads </tspan><tspan class="cls-14" x="79.38" y="90.6">t</tspan><tspan x="88.72" y="90.6">o imp</tspan><tspan class="cls-15" x="160.95" y="90.6">r</tspan><tspan class="cls-17" x="172.88" y="90.6">ov</tspan><tspan x="203.1" y="90.6">ed men</tspan><tspan class="cls-17" x="300.34" y="90.6">t</tspan><tspan x="309.87" y="90.6">al clari</tspan><tspan class="cls-18" x="398.06" y="90.6">t</tspan><tspan x="407.4" y="90.6">y and </tspan><tspan x="22.91" y="135.9">ma</tspan><tspan class="cls-19" x="63.62" y="135.9">k</tspan><tspan x="78.46" y="135.9">es </tspan><tspan class="cls-20" x="116.41" y="135.9">f</tspan><tspan x="124.89" y="135.9">or a mo</tspan><tspan class="cls-5" x="225.48" y="135.9">r</tspan><tspan x="237.41" y="135.9">e p</tspan><tspan class="cls-5" x="277.13" y="135.9">r</tspan><tspan x="289.06" y="135.9">oducti</tspan><tspan class="cls-17" x="368.61" y="135.9">v</tspan><tspan x="383.1" y="135.9">e d</tspan><tspan class="cls-18" x="422.81" y="135.9">a</tspan><tspan class="cls-21" x="437.87" y="135.9">y</tspan><tspan x="451.05" y="135.9">.</tspan></text><g class="cls-22"><path class="cls-23" d="M569.4,923.88c.16,0,.47,0,.79,0l37.4.13c.68,0,1.37,0,1.7.76s-.16,1.3-.68,1.82l-26.12,26.17c-.18.18-.33.42-.54.5-.46.17-1.06.49-1.4.32a1.72,1.72,0,0,1-.78-1.29c0-1.79.09-3.58.15-5.37.11-3,.2-6,.36-9a2.07,2.07,0,0,0-.74-1.83c-3.49-3.2-6.95-6.45-10.41-9.69C568.18,925.43,568.25,924.33,569.4,923.88Zm31.92,2.81-.05-.2-28.35-.1c3,2.78,5.72,5.36,8.49,7.89a1.14,1.14,0,0,0,1,.19C588.72,931.9,595,929.29,601.32,926.69Zm1.23,2.35a2.41,2.41,0,0,0-.45.08q-9.32,3.84-18.65,7.67c-.58.24-.66.6-.68,1.13-.11,3.44-.24,6.88-.36,10.32,0,.25,0,.51.05.92C589.19,942.43,595.78,935.82,602.55,929Z"/></g></g></g></svg>