<svg xmlns="http://www.w3.org/2000/svg" viewBox="0 0 1086.47 94.66"><defs><style>.cls-1{opacity:0.3;}.cls-10,.cls-14,.cls-15,.cls-2,.cls-4{fill:#fff;}.cls-2{stroke:#fff;stroke-miterlimit:10;}.cls-3{fill:#ff8885;}.cls-10,.cls-14,.cls-15,.cls-4{font-size:16px;font-family:DIN2014-Regular, DIN 2014;}.cls-4,.cls-8{letter-spacing:0.03em;}.cls-14,.cls-5{letter-spacing:0.04em;}.cls-10,.cls-6{letter-spacing:0.04em;}.cls-7{letter-spacing:0.03em;}.cls-9{fill:#ef4141;}.cls-11{fill:#69ccca;}.cls-12{letter-spacing:0.02em;}.cls-13{letter-spacing:0.02em;}.cls-15{letter-spacing:0.03em;}.cls-16{letter-spacing:0.04em;}</style></defs><title>userFlow</title><g id="Layer_2" data-name="Layer 2"><g id="Vertical-Lines"><g class="cls-1"><rect class="cls-2" x="543.06" y="-448.84" width="0.25" height="1083.25" transform="translate(635.97 -450.4) rotate(90)"/></g><circle class="cls-3" cx="2.56" cy="92.66" r="2"/><text class="cls-4" transform="translate(0 13.52)">U<tspan class="cls-5" x="11.2" y="0">ser wants to </tspan><tspan class="cls-6"><tspan x="0" y="24">increase p</tspan><tspan class="cls-7" x="75.33" y="24">h</tspan><tspan class="cls-5" x="84.22" y="24">ysi</tspan><tspan class="cls-8" x="104.89" y="24">c</tspan><tspan x="112.48" y="24">al</tspan><tspan x="0" y="48">activity</tspan></tspan></text><circle class="cls-9" cx="203.57" cy="92.66" r="2"/><text class="cls-10" transform="translate(200.66 13.52)">Th<tspan class="cls-8" x="17.95" y="0">e</tspan><tspan class="cls-5" x="26.24" y="0">y are</tspan><tspan x="0" y="24">intimidated by </tspan><tspan class="cls-5"><tspan x="0" y="48">the gym</tspan></tspan></text><circle class="cls-11" cx="385.79" cy="92.66" r="2"/><text class="cls-4" transform="translate(382.53 13.52)">U<tspan class="cls-5" x="11.2" y="0">ser sets goal of</tspan><tspan class="cls-6"><tspan x="0" y="24">20 minutes of</tspan></tspan><tspan class="cls-12"><tspan x="0" y="48">e</tspan><tspan class="cls-13" x="8.06" y="48">x</tspan><tspan class="cls-6" x="16.06" y="48" xml:space="preserve">ercise per day  </tspan></tspan></text><circle class="cls-3" cx="580.08" cy="92.66" r="2"/><text class="cls-14" transform="translate(577.47 61.52)">Plays FLUX daily</text><circle class="cls-9" cx="764.4" cy="92.66" r="2"/><text class="cls-15" transform="translate(761.45 13.52)">A<tspan class="cls-5" x="9.82" y="0">chi</tspan><tspan class="cls-8" x="31.1" y="0">e</tspan><tspan class="cls-6" x="39.39" y="0">ves r</tspan><tspan class="cls-16" x="76.22" y="0">e</tspan><tspan class="cls-5" x="84.59" y="0">ward</tspan><tspan class="cls-8"><tspan x="0" y="24">c</tspan><tspan class="cls-5" x="7.58" y="24">ards as th</tspan><tspan x="80.7" y="24">e</tspan><tspan class="cls-5" x="88.99" y="24">y get</tspan></tspan><tspan class="cls-6"><tspan x="0" y="48">closer to their goal</tspan></tspan></text><circle class="cls-11" cx="961" cy="92.66" r="2"/><text class="cls-4" transform="translate(959 13.52)">U<tspan class="cls-5" x="11.2" y="0">ser learns more</tspan><tspan class="cls-6"><tspan x="0" y="24">about </tspan><tspan class="cls-12" x="45.42" y="24">e</tspan><tspan class="cls-13" x="53.49" y="24">x</tspan><tspan class="cls-5" x="61.49" y="24">ercise </tspan></tspan><tspan class="cls-5"><tspan x="0" y="48">through FLUX</tspan></tspan></text></g></g></svg>